<?xml version="1.0" encoding="UTF-8"?>
<svg id="Layer_1" xmlns="http://www.w3.org/2000/svg" version="1.1" viewBox="0 0 512 512">
  <!-- Generator: Adobe Illustrator 29.8.1, SVG Export Plug-In . SVG Version: 2.1.1 Build 2)  -->
  <defs>
    <style>
      .st0 {
        fill: #0072b4;
      }
    </style>
  </defs>
  <path class="st0" d="M15.39,173.89c-3.77.68-9.36-3-9.36-10.47s.62-56.24,0-60.65c-.56-4.28,6.85-7.25,6.85-7.25h80.25s7.53-1.88,6.23,8.59c-1.26,10.49-4.95,61.04-4.95,61.04,0,0-1.82,8.74-11.14,8.74H15.39Z"/>
  <path class="st0" d="M112.94,399.87c-2.61,3.11-15.42,20.56-42.06,20.56-24.09,0-62.68-17.6-64.56-78.1v-136.62c0-4.51.91-8.61,8.45-8.61h66.01c5.05.64,8.05-.62,8.05,4.89s-2.96,53.76-3.62,61.89c-.79,9.63,6.77,22.27,14.84,10.49,7.93-11.76,37.63-62.43,43.22-70.44,5.53-8.07,9.87-6.83,16.68-6.83h144.65c6.77,0,11.05,2.48,11.63,8.07.64,5.55-.52,37.12-1.24,42.58-.89,6.71,3.13,19.46,9.96,9.23,7.41-11.14,24.53-46.43,28.23-52,3.73-5.46,6.77-7.97,14.22-7.97h69.18c5.61,0,8.07,5.46,4.35,11.65l-114.74,185.6c-10,17.22-34.71,31.24-59.41,24.96-24.78-6.19-42-31.05-40.16-59.02,1.93-27.78,4.55-106.34,5.55-114.89,1.06-9.03-8.9-22.58-20.97-5.57l-98.26,160.12Z"/>
  <path class="st0" d="M169.81,173.6h139.04c8.65,0,6.15-7.72,6.15-10.87s-4.26-70.71-55.58-71.48c-46.84-.7-87.83,63.47-92.61,72.16-2.44,3.77-3.89,10.08,3,10.18"/>
  <path class="st0" d="M377.45,173.83s-4.93-2.42-1.88-8.16c3.19-5.46,38.71-70.26,38.71-70.26h84.64c3.77,0,9.92-.81,5.61,9.15-4.39,9.94-32.71,55.91-36.29,60.65-3.85,5.13-4.24,7.99-12.32,8.61h-78.47Z"/>
</svg>