<?xml version="1.0" encoding="UTF-8"?>
<svg id="Layer_1" xmlns="http://www.w3.org/2000/svg" version="1.1" viewBox="0 0 256 256">
  <!-- Generator: Adobe Illustrator 29.8.1, SVG Export Plug-In . SVG Version: 2.1.1 Build 2)  -->
  <defs>
    <style>
      .st0 {
        fill: #0072b4;
      }
    </style>
  </defs>
  <path class="st0" d="M7.69,86.95c-1.88.34-4.68-1.5-4.68-5.24s.31-28.12,0-30.33c-.28-2.14,3.43-3.62,3.43-3.62h40.13s3.77-.94,3.12,4.3c-.63,5.25-2.47,30.52-2.47,30.52,0,0-.91,4.37-5.57,4.37H7.69Z"/>
  <path class="st0" d="M56.47,199.93c-1.3,1.55-7.71,10.28-21.03,10.28-12.05,0-31.34-8.8-32.28-39.05v-68.31c0-2.26.46-4.31,4.22-4.31h33.01c2.53.32,4.03-.31,4.03,2.44s-1.48,26.88-1.81,30.95c-.39,4.81,3.38,11.14,7.42,5.25,3.96-5.88,18.82-31.22,21.61-35.22,2.76-4.04,4.94-3.42,8.34-3.42h72.33c3.38,0,5.53,1.24,5.82,4.04.32,2.77-.26,18.56-.62,21.29-.45,3.35,1.56,9.73,4.98,4.62,3.71-5.57,12.26-23.22,14.12-26,1.86-2.73,3.38-3.98,7.11-3.98h34.59c2.8,0,4.04,2.73,2.17,5.83l-57.37,92.8c-5,8.61-17.36,15.62-29.7,12.48-12.39-3.09-21-15.53-20.08-29.51.96-13.89,2.28-53.17,2.77-57.44.53-4.51-4.45-11.29-10.48-2.78l-49.13,80.06Z"/>
  <path class="st0" d="M84.9,86.8h69.52c4.33,0,3.07-3.86,3.07-5.43s-2.13-35.36-27.79-35.74c-23.42-.35-43.92,31.73-46.31,36.08-1.22,1.88-1.95,5.04,1.5,5.09"/>
  <path class="st0" d="M188.73,86.91s-2.46-1.21-.94-4.08c1.59-2.73,19.35-35.13,19.35-35.13h42.32c1.88,0,4.96-.4,2.8,4.57-2.19,4.97-16.35,27.96-18.14,30.33-1.93,2.57-2.12,4-6.16,4.31h-39.24Z"/>
</svg>