<?xml version="1.0" encoding="UTF-8"?>
<svg id="Layer_1" xmlns="http://www.w3.org/2000/svg" version="1.1" viewBox="0 0 563.2 256">
  <!-- Generator: Adobe Illustrator 29.8.1, SVG Export Plug-In . SVG Version: 2.1.1 Build 2)  -->
  <defs>
    <style>
      .st0 {
        fill: #0072b4;
      }
    </style>
  </defs>
  <path class="st0" d="M8.78,65.09c-.87.16-2.17-.7-2.17-2.43s.14-13.04,0-14.07c-.13-.99,1.59-1.68,1.59-1.68h18.61s1.75-.44,1.45,1.99c-.29,2.43-1.15,14.16-1.15,14.16,0,0-.42,2.03-2.58,2.03h-15.75Z"/>
  <path class="st0" d="M31.4,117.5c-.6.72-3.58,4.77-9.76,4.77-5.59,0-14.54-4.08-14.97-18.11v-31.69c0-1.05.21-2,1.96-2h15.31c1.17.15,1.87-.14,1.87,1.13s-.69,12.47-.84,14.36c-.18,2.23,1.57,5.17,3.44,2.43,1.84-2.73,8.73-14.48,10.02-16.34,1.28-1.87,2.29-1.58,3.87-1.58h33.55c1.57,0,2.56.58,2.7,1.87.15,1.29-.12,8.61-.29,9.88-.21,1.56.72,4.51,2.31,2.14,1.72-2.58,5.69-10.77,6.55-12.06.86-1.27,1.57-1.85,3.3-1.85h16.05c1.3,0,1.87,1.27,1.01,2.7l-26.61,43.05c-2.32,3.99-8.05,7.25-13.78,5.79-5.75-1.44-9.74-7.2-9.31-13.69.45-6.44,1.06-24.66,1.29-26.65.24-2.09-2.06-5.24-4.86-1.29l-22.79,37.14Z"/>
  <path class="st0" d="M44.59,65.02h32.25c2.01,0,1.43-1.79,1.43-2.52s-.99-16.4-12.89-16.58c-10.87-.16-20.37,14.72-21.48,16.74-.57.87-.9,2.34.7,2.36"/>
  <path class="st0" d="M92.76,65.07s-1.14-.56-.44-1.89c.74-1.27,8.98-16.3,8.98-16.3h19.63c.87,0,2.3-.19,1.3,2.12-1.02,2.3-7.59,12.97-8.42,14.07-.89,1.19-.98,1.85-2.86,2h-18.2Z"/>
  <path class="st0" d="M157.34,51.04c3.16,7.01,5.02,11.32,5.45,12.59.44,1.31-.13,1.6-1.16,1.44h-28.88c-1.26-.11-1.02-1.27-.59-2.13,0,0,4.23-9.38,8.58-14.21,2.86-3.76,13.23-4.49,16.59,2.3"/>
  <path class="st0" d="M129.62,70.47h34.08s2.01-.17,3.09,2.52c1.08,2.64,20.14,47.67,20.14,47.67,0,0,.72,1.56-.57,1.66h-22.64c-1.39,0-2.28-1.74-2.58-2.51-.72-1.41-8.76-21.39-10.03-24.39-1.3-3.02-2.73-4.74-6.46-4.89-3.71-.14-5.16,1.72-6.16,3.3-1,1.59-10.62,26.22-11.33,27.38-.71,1.12-1.87,1.12-1.87,1.12h-20.48c-.87,0-2.16-1.12-1.03-3.14,1.15-1.99,23.53-46.71,23.53-46.71.24-.53,1.26-2.02,2.3-2.02"/>
  <rect class="st0" x="6.6" y="128.45" width="549.65" height="21.43"/>
  <polygon class="st0" points="40.21 201.49 32.53 201.49 27.69 182.89 27.59 182.89 22.96 201.49 15.23 201.49 6.6 173.78 14.49 173.78 19.49 192.59 19.59 192.59 24.11 173.78 31.37 173.78 36.01 192.54 36.11 192.54 41.11 173.78 48.79 173.78 40.21 201.49"/>
  <g>
    <path class="st0" d="M68.88,187.93c-1.26,1.13-3.89,1.18-6.21,1.61-2.31.48-4.42,1.29-4.42,4.08s2.16,3.53,4.58,3.53c5.84,0,6.05-4.71,6.05-6.38v-2.84ZM51.62,182.3c.42-7.13,6.68-9.27,12.78-9.27,5.42,0,11.95,1.23,11.95,7.88v14.42c0,2.52.26,5.04.95,6.16h-7.58c-.26-.86-.48-1.77-.53-2.68-2.37,2.52-5.84,3.43-9.15,3.43-5.16,0-9.26-2.63-9.26-8.31,0-6.27,4.63-7.77,9.26-8.41,4.58-.7,8.84-.54,8.84-3.64,0-3.27-2.21-3.75-4.84-3.75-2.84,0-4.68,1.18-4.95,4.18h-7.47Z"/>
    <path class="st0" d="M91.59,173.78h5.47v5.09h-5.47v13.72c0,2.57.63,3.22,3.15,3.22.79,0,1.53-.05,2.31-.21v5.95c-1.26.21-2.89.26-4.36.26-4.58,0-8.57-1.07-8.57-6.59v-16.34h-4.52v-5.09h4.52v-8.31h7.47v8.31Z"/>
    <path class="st0" d="M118.94,184.66c-.69-3.86-2.31-5.9-5.94-5.9-4.73,0-6.1,3.75-6.21,5.9h12.15ZM106.79,189.48c.21,4.83,2.53,7.02,6.68,7.02,3,0,5.42-1.87,5.9-3.59h6.57c-2.1,6.54-6.57,9.33-12.73,9.33-8.57,0-13.89-6.01-13.89-14.58s5.63-14.63,13.89-14.63c9.26,0,13.73,7.93,13.2,16.45h-19.62Z"/>
    <path class="st0" d="M130.82,173.78h7.1v5.15h.11c1.37-3.49,5.05-5.9,8.68-5.9.53,0,1.16.11,1.63.27v7.07c-.69-.16-1.79-.27-2.68-.27-5.47,0-7.37,4.02-7.37,8.9v12.49h-7.47v-27.71Z"/>
    <path class="st0" d="M146.82,193.23h8.26v8.25c0,4.93-3.68,8.2-8.21,8.9v-3.86c2.21-.38,3.84-2.68,3.74-5.04h-3.79v-8.25Z"/>
    <path class="st0" d="M185.17,173.78h5.47v5.09h-5.47v13.72c0,2.57.63,3.22,3.16,3.22.79,0,1.53-.05,2.31-.21v5.95c-1.26.21-2.9.26-4.37.26-4.58,0-8.57-1.07-8.57-6.59v-16.34h-4.52v-5.09h4.52v-8.31h7.47v8.31Z"/>
    <path class="st0" d="M194.21,163.22h7.47v14.42h.16c1.89-3.11,5.16-4.61,7.94-4.61,7.95,0,9.94,4.56,9.94,11.41v17.05h-7.47v-15.65c0-4.56-1.32-6.81-4.79-6.81-4.05,0-5.79,2.3-5.79,7.93v14.53h-7.47v-38.27Z"/>
    <path class="st0" d="M243.7,184.66c-.69-3.86-2.31-5.9-5.94-5.9-4.73,0-6.1,3.75-6.21,5.9h12.15ZM231.55,189.48c.21,4.83,2.53,7.02,6.68,7.02,3,0,5.42-1.87,5.89-3.59h6.58c-2.1,6.54-6.58,9.33-12.73,9.33-8.57,0-13.89-6.01-13.89-14.58s5.63-14.63,13.89-14.63c9.26,0,13.73,7.93,13.2,16.45h-19.62Z"/>
  </g>
  <rect class="st0" x="270.42" y="163.22" width="7.47" height="38.27"/>
  <path class="st0" d="M283.99,173.78h7.47v27.71h-7.47v-27.71ZM291.46,169.49h-7.47v-6.27h7.47v6.27Z"/>
  <g>
    <path class="st0" d="M310.13,196.5c4.84,0,6.52-4.18,6.52-8.73s-1.68-9.01-6.37-9.01-6.63,4.4-6.63,8.9,1.58,8.84,6.47,8.84M323.85,211.24h-7.47v-13.24h-.1c-1.74,3-5.31,4.23-8.57,4.23-5,0-11.52-3.7-11.52-14.42,0-7.61,3.95-14.79,12.2-14.79,3.37,0,6.58,1.23,8.26,4.29h.11v-3.54h7.1v37.46Z"/>
    <path class="st0" d="M354.99,201.49h-7.1v-3.86h-.16c-1.89,3.11-5.16,4.61-8.31,4.61-7.94,0-9.94-4.56-9.94-11.42v-17.04h7.47v15.65c0,4.56,1.32,6.81,4.79,6.81,4.05,0,5.79-2.3,5.79-7.93v-14.53h7.47v27.71Z"/>
  </g>
  <path class="st0" d="M360.88,173.78h7.47v27.71h-7.47v-27.71ZM368.34,169.49h-7.47v-6.27h7.47v6.27Z"/>
  <g>
    <path class="st0" d="M387.12,178.77c-4.89,0-6.57,4.29-6.57,8.84s1.94,8.89,6.57,8.89c4.95,0,6.42-4.39,6.42-8.95s-1.58-8.79-6.42-8.79M393.65,197.95h-.11c-1.73,3-4.79,4.29-8.26,4.29-8.21,0-12.2-7.18-12.2-14.85s4.05-14.37,12.05-14.37c3.21,0,6.37,1.39,8.05,4.13h.11v-13.94h7.47v38.27h-7.1v-3.54Z"/>
    <path class="st0" d="M434.2,196.5c5.1,0,6.63-4.45,6.63-8.84s-1.52-8.9-6.63-8.9-6.58,4.45-6.58,8.9,1.53,8.84,6.58,8.84M434.2,173.03c8.57,0,14.1,5.79,14.1,14.63s-5.52,14.58-14.1,14.58-14.05-5.79-14.05-14.58,5.53-14.63,14.05-14.63"/>
    <path class="st0" d="M454.76,178.87h-4.47v-5.09h4.47v-2.14c0-4.88,3-8.42,9.1-8.42,1.32,0,2.68.16,3.95.22v5.68c-.89-.11-1.79-.16-2.74-.16-2,0-2.84.85-2.84,3.16v1.66h5.15v5.09h-5.15v22.62h-7.47v-22.62Z"/>
  </g>
  <rect class="st0" x="485.47" y="163.22" width="7.47" height="38.27"/>
  <path class="st0" d="M499.04,173.78h7.47v27.71h-7.47v-27.71ZM506.51,169.49h-7.47v-6.27h7.47v6.27Z"/>
  <path class="st0" d="M514.01,178.87h-4.47v-5.09h4.47v-2.14c0-4.88,3-8.42,9.1-8.42,1.32,0,2.68.16,3.95.22v5.68c-.89-.11-1.79-.16-2.74-.16-2,0-2.84.85-2.84,3.16v1.66h5.15v5.09h-5.15v22.62h-7.47v-22.62Z"/>
  <path class="st0" d="M548.74,184.66c-.68-3.86-2.31-5.9-5.94-5.9-4.73,0-6.1,3.75-6.21,5.9h12.15ZM536.59,189.48c.21,4.83,2.53,7.02,6.68,7.02,3,0,5.42-1.87,5.89-3.59h6.57c-2.1,6.54-6.57,9.33-12.73,9.33-8.58,0-13.89-6.01-13.89-14.58s5.63-14.63,13.89-14.63c9.26,0,13.73,7.93,13.2,16.45h-19.62Z"/>
  <rect class="st0" x="203.51" y="70.46" width="23.33" height="51.87" rx="1.65" ry="1.65"/>
  <path class="st0" d="M363.82,118.11c.26.97,1.19,4.11-.14,4.21h-22.34c-.92,0-1.66-.69-1.66-1.6v-48.57c0-.91.74-1.68,1.66-1.68h52.29s1.58-.06,1.33,1.54c-.3,1.77-2.61,11.52-15.08,16.23,0,0-3.04.8-1.44,2.58l29.83,29.63c.36.41,1.91,1.73-.15,1.87h-28.53l-13.75-19.03s-1.87-1.85-3.88-.29c-2,1.59-1.29,3.43-.71,5.9l2.58,9.22Z"/>
  <path class="st0" d="M254.59,62.69c0,1.32-1.07,2.39-2.39,2.39h-74.04c-1.32,0-2.39-1.07-2.39-2.39v-13.43c0-1.32,1.07-2.39,2.39-2.39h74.04c1.32,0,2.39,1.07,2.39,2.39v13.43Z"/>
  <path class="st0" d="M327.85,62.69c0,1.32-1.07,2.39-2.39,2.39h-60.24c-1.32,0-2.39-1.07-2.39-2.39v-13.43c0-1.32,1.07-2.39,2.39-2.39h60.24c1.32,0,2.39,1.07,2.39,2.39v13.43Z"/>
  <path class="st0" d="M395.49,64.47c.13-2.6-.55-8.31-3.44-12.47-2.86-4.16-9.06-5.12-10.46-5.13h-39.48c-1.32,0-2.39,1.01-2.39,2.32v13.5c0,1.32,1.07,2.38,2.39,2.38h51.51c.23,0,1.84.05,1.87-.6"/>
  <path class="st0" d="M405.47,65.07h63.85c1.32,0,2.39-1.06,2.39-2.38v-13.5c0-1.32-1.07-2.32-2.39-2.32h-41.41c-5.27-.08-14.58,2.51-23.25,15.56-.93,1.58-1.13,2.53.81,2.64"/>
  <path class="st0" d="M327.85,102.72c0,2.3,0,17.21,0,17.21,0,1.32-1.07,2.39-2.39,2.39h-60.24c-1.32,0-2.39-1.07-2.39-2.39v-47.1c0-1.32,1.07-2.37,2.39-2.37h47.89s2.34-.27,2.34,1.74v12.88c0,1.87-.35,3.18-2.93,3.18h-25.82c-1.59.01-2.41.32-2.41,1.69v8.78c0,1.27.12,1.87,2.29,1.87h38.84c1.27,0,2.43.3,2.43,2.13"/>
  <path class="st0" d="M555.41,73.03c.87,3.38,1.28,6.94,1.17,10.63-.68,21.9-19.71,39.66-42.51,39.66s-40.73-17.75-40.05-39.66c.12-3.66.74-7.21,1.81-10.57.15-.59,1-2.6,2.36-2.6h18.25c.24-.02,1.62.35.29,2.58-1.97,3.15-3.15,6.8-3.27,10.69-.16,5.27,1.72,10.27,5.3,14.08,3.95,4.2,9.43,6.52,15.46,6.52,12.28,0,22.57-9.66,22.92-21.54.11-3.46-.67-6.8-2.22-9.77-.37-.76-1.1-2.56.38-2.56h18.11c.5,0,1.57.71,2.01,2.54"/>
  <path class="st0" d="M552.12,62.7c-7.2-10.78-20.28-17.94-35.44-17.94s-28.75,7.17-36.66,17.97c-.47.66-1.14,2.51,1.49,2.51h69.58c.4,0,2.42.09,1.02-2.54"/>
  <path class="st0" d="M423.55,73.67c-2,2.7-3.3,5.89-3.62,9.29-.93,9.79,6.59,17.7,16.8,17.7h32.56c1.27,0,2.43.21,2.43,2.05,0,2.29,0,17.21,0,17.21,0,1.32-1.07,2.41-2.39,2.41h-40.71c-14.24-.03-25.09-14.77-26.39-18.16-8.34-16.29-1.65-30.56-1.21-31.57.57-1.26,1.78-2.1,2.63-2.14h19.73c.61,0,2.01.93.18,3.23"/>
</svg>