<?xml version="1.0" encoding="UTF-8"?>
<svg id="Layer_1" xmlns="http://www.w3.org/2000/svg" version="1.1" viewBox="0 0 1126.4 512">
  <!-- Generator: Adobe Illustrator 29.8.1, SVG Export Plug-In . SVG Version: 2.1.1 Build 2)  -->
  <defs>
    <style>
      .st0 {
        fill: #0072b4;
      }
    </style>
  </defs>
  <path class="st0" d="M17.56,130.18c-1.75.32-4.34-1.39-4.34-4.86s.29-26.09,0-28.14c-.26-1.99,3.18-3.36,3.18-3.36h37.23s3.5-.87,2.89,3.99c-.59,4.87-2.29,28.32-2.29,28.32,0,0-.85,4.05-5.17,4.05h-31.5Z"/>
  <path class="st0" d="M62.81,235c-1.21,1.44-7.15,9.54-19.51,9.54-11.18,0-29.08-8.16-29.95-36.23v-63.38c0-2.09.42-3.99,3.92-3.99h30.62c2.34.3,3.74-.29,3.74,2.27s-1.37,24.94-1.68,28.71c-.36,4.47,3.14,10.33,6.88,4.87,3.68-5.45,17.46-28.96,20.05-32.68,2.56-3.74,4.58-3.17,7.74-3.17h67.1c3.14,0,5.13,1.15,5.4,3.74.3,2.57-.24,17.22-.58,19.75-.41,3.11,1.45,9.03,4.62,4.28,3.44-5.17,11.38-21.54,13.1-24.12,1.73-2.54,3.14-3.7,6.6-3.7h32.09c2.6,0,3.74,2.54,2.02,5.41l-53.23,86.1c-4.64,7.99-16.1,14.49-27.56,11.58-11.49-2.87-19.48-14.4-18.63-27.38.89-12.89,2.11-49.33,2.57-53.29.49-4.19-4.13-10.48-9.73-2.58l-45.58,74.27Z"/>
  <path class="st0" d="M89.19,130.04h64.5c4.01,0,2.85-3.58,2.85-5.04s-1.98-32.8-25.78-33.16c-21.73-.33-40.74,29.44-42.96,33.47-1.13,1.75-1.81,4.68,1.39,4.72"/>
  <path class="st0" d="M185.51,130.15s-2.29-1.12-.87-3.78c1.48-2.54,17.96-32.59,17.96-32.59h39.26c1.75,0,4.6-.37,2.6,4.24-2.04,4.61-15.17,25.94-16.83,28.14-1.79,2.38-1.97,3.71-5.71,3.99h-36.4Z"/>
  <path class="st0" d="M314.68,102.08c6.32,14.03,10.04,22.63,10.9,25.18.88,2.61-.26,3.2-2.31,2.88h-57.76c-2.52-.21-2.04-2.54-1.17-4.25,0,0,8.46-18.75,17.16-28.41,5.72-7.52,26.46-8.98,33.19,4.61"/>
  <path class="st0" d="M259.23,140.94h68.17s4.01-.34,6.17,5.03c2.16,5.28,40.27,95.34,40.27,95.34,0,0,1.45,3.12-1.14,3.32h-45.28c-2.78,0-4.56-3.49-5.16-5.01-1.45-2.82-17.52-42.79-20.06-48.78-2.59-6.04-5.46-9.48-12.92-9.78-7.42-.29-10.31,3.45-12.31,6.61-2,3.18-21.24,52.45-22.66,54.75-1.41,2.25-3.74,2.25-3.74,2.25h-40.95c-1.75,0-4.32-2.25-2.05-6.28,2.3-3.98,47.06-93.41,47.06-93.41.47-1.06,2.52-4.03,4.6-4.03"/>
  <rect class="st0" x="13.2" y="256.89" width="1099.31" height="42.87"/>
  <polygon class="st0" points="80.43 402.98 65.06 402.98 55.38 365.78 55.18 365.78 45.92 402.98 30.46 402.98 13.2 347.55 28.98 347.55 38.97 385.19 39.18 385.19 48.23 347.55 62.75 347.55 72.01 385.08 72.22 385.08 82.21 347.55 97.58 347.55 80.43 402.98"/>
  <g>
    <path class="st0" d="M137.75,375.86c-2.53,2.26-7.79,2.36-12.42,3.22-4.63.97-8.84,2.57-8.84,8.15s4.31,7.07,9.16,7.07c11.68,0,12.1-9.43,12.1-12.75v-5.68ZM103.24,364.6c.85-14.25,13.37-18.54,25.56-18.54,10.84,0,23.89,2.47,23.89,15.76v28.84c0,5.03.52,10.07,1.89,12.33h-15.15c-.53-1.72-.95-3.54-1.06-5.37-4.73,5.04-11.68,6.87-18.3,6.87-10.31,0-18.51-5.25-18.51-16.62,0-12.53,9.26-15.54,18.51-16.82,9.15-1.39,17.68-1.08,17.68-7.29,0-6.54-4.42-7.51-9.68-7.51-5.68,0-9.36,2.36-9.89,8.36h-14.94Z"/>
    <path class="st0" d="M183.19,347.56h10.94v10.19h-10.94v27.43c0,5.15,1.26,6.43,6.31,6.43,1.58,0,3.05-.11,4.63-.42v11.9c-2.52.42-5.78.53-8.73.53-9.15,0-17.15-2.14-17.15-13.18v-32.69h-9.05v-10.19h9.05v-16.61h14.94v16.61Z"/>
    <path class="st0" d="M237.89,369.32c-1.37-7.71-4.63-11.79-11.89-11.79-9.47,0-12.2,7.51-12.42,11.79h24.3ZM213.58,378.97c.42,9.65,5.05,14.04,13.36,14.04,6,0,10.84-3.74,11.79-7.18h13.15c-4.21,13.08-13.15,18.66-25.46,18.66-17.15,0-27.78-12.01-27.78-29.15s11.26-29.27,27.78-29.27c18.51,0,27.45,15.86,26.41,32.91h-39.25Z"/>
    <path class="st0" d="M261.65,347.56h14.2v10.29h.21c2.74-6.97,10.1-11.79,17.36-11.79,1.06,0,2.31.21,3.26.54v14.14c-1.37-.33-3.58-.54-5.37-.54-10.94,0-14.73,8.04-14.73,17.79v24.99h-14.94v-55.43Z"/>
    <path class="st0" d="M293.65,386.47h16.52v16.51c0,9.86-7.37,16.4-16.41,17.79v-7.71c4.42-.76,7.68-5.37,7.47-10.08h-7.58v-16.51Z"/>
    <path class="st0" d="M370.33,347.56h10.95v10.19h-10.95v27.43c0,5.15,1.27,6.43,6.32,6.43,1.57,0,3.05-.11,4.63-.42v11.9c-2.53.42-5.79.53-8.74.53-9.15,0-17.15-2.14-17.15-13.18v-32.69h-9.05v-10.19h9.05v-16.61h14.94v16.61Z"/>
    <path class="st0" d="M388.42,326.44h14.94v28.84h.32c3.78-6.22,10.31-9.22,15.88-9.22,15.89,0,19.89,9.11,19.89,22.83v34.1h-14.94v-31.3c0-9.11-2.63-13.62-9.57-13.62-8.1,0-11.57,4.61-11.57,15.86v29.06h-14.94v-76.54Z"/>
    <path class="st0" d="M487.41,369.32c-1.37-7.71-4.63-11.79-11.89-11.79-9.47,0-12.2,7.51-12.42,11.79h24.3ZM463.1,378.97c.42,9.65,5.05,14.04,13.37,14.04,5.99,0,10.83-3.74,11.77-7.18h13.16c-4.21,13.08-13.16,18.66-25.46,18.66-17.15,0-27.78-12.01-27.78-29.15s11.26-29.27,27.78-29.27c18.51,0,27.45,15.86,26.41,32.91h-39.25Z"/>
  </g>
  <rect class="st0" x="540.84" y="326.44" width="14.94" height="76.54"/>
  <path class="st0" d="M567.97,347.56h14.94v55.43h-14.94v-55.43ZM582.91,338.98h-14.94v-12.54h14.94v12.54Z"/>
  <g>
    <path class="st0" d="M620.26,393.01c9.68,0,13.04-8.36,13.04-17.47s-3.36-18.01-12.73-18.01-13.25,8.8-13.25,17.8,3.16,17.68,12.94,17.68M647.71,422.48h-14.94v-26.47h-.2c-3.48,6-10.63,8.47-17.15,8.47-10,0-23.05-7.39-23.05-28.84,0-15.22,7.89-29.59,24.41-29.59,6.73,0,13.16,2.47,16.52,8.57h.21v-7.08h14.2v74.93Z"/>
    <path class="st0" d="M709.98,402.98h-14.2v-7.72h-.32c-3.78,6.21-10.31,9.22-16.62,9.22-15.88,0-19.89-9.11-19.89-22.83v-34.09h14.94v31.3c0,9.11,2.63,13.62,9.57,13.62,8.1,0,11.57-4.61,11.57-15.86v-29.06h14.94v55.43Z"/>
  </g>
  <path class="st0" d="M721.76,347.56h14.94v55.43h-14.94v-55.43ZM736.69,338.98h-14.94v-12.54h14.94v12.54Z"/>
  <g>
    <path class="st0" d="M774.24,357.53c-9.78,0-13.15,8.57-13.15,17.69s3.89,17.78,13.15,17.78c9.89,0,12.84-8.79,12.84-17.9s-3.16-17.57-12.84-17.57M787.29,395.9h-.21c-3.47,6-9.57,8.57-16.52,8.57-16.41,0-24.41-14.37-24.41-29.69s8.1-28.73,24.09-28.73c6.41,0,12.73,2.78,16.09,8.26h.22v-27.88h14.93v76.54h-14.2v-7.08Z"/>
    <path class="st0" d="M868.39,393c10.21,0,13.25-8.89,13.25-17.68s-3.04-17.8-13.25-17.8-13.16,8.9-13.16,17.8,3.05,17.68,13.16,17.68M868.39,346.06c17.15,0,28.19,11.58,28.19,29.27s-11.04,29.15-28.19,29.15-28.1-11.58-28.1-29.15,11.05-29.27,28.1-29.27"/>
    <path class="st0" d="M909.51,357.74h-8.94v-10.19h8.94v-4.28c0-9.76,5.99-16.83,18.2-16.83,2.63,0,5.37.33,7.89.43v11.36c-1.79-.21-3.57-.32-5.47-.32-3.99,0-5.67,1.71-5.67,6.33v3.31h10.3v10.19h-10.3v45.24h-14.94v-45.24Z"/>
  </g>
  <rect class="st0" x="970.94" y="326.44" width="14.94" height="76.54"/>
  <path class="st0" d="M998.07,347.56h14.94v55.43h-14.94v-55.43ZM1013.02,338.98h-14.94v-12.54h14.94v12.54Z"/>
  <path class="st0" d="M1028.01,357.74h-8.94v-10.19h8.94v-4.28c0-9.76,5.99-16.83,18.2-16.83,2.63,0,5.37.33,7.89.43v11.36c-1.79-.21-3.57-.32-5.47-.32-3.99,0-5.68,1.71-5.68,6.33v3.31h10.3v10.19h-10.3v45.24h-14.94v-45.24Z"/>
  <path class="st0" d="M1097.48,369.32c-1.36-7.71-4.63-11.79-11.89-11.79-9.47,0-12.2,7.51-12.42,11.79h24.3ZM1073.17,378.97c.42,9.65,5.05,14.04,13.37,14.04,5.99,0,10.83-3.74,11.78-7.18h13.15c-4.21,13.08-13.15,18.66-25.46,18.66-17.15,0-27.78-12.01-27.78-29.15s11.26-29.27,27.78-29.27c18.51,0,27.46,15.86,26.41,32.91h-39.25Z"/>
  <rect class="st0" x="407.01" y="140.91" width="46.67" height="103.74" rx="3.3" ry="3.3"/>
  <path class="st0" d="M727.64,236.23c.53,1.93,2.37,8.21-.29,8.41h-44.69c-1.83,0-3.31-1.38-3.31-3.21v-97.14c0-1.82,1.48-3.36,3.31-3.36h104.57s3.17-.12,2.65,3.08c-.6,3.54-5.22,23.04-30.15,32.47,0,0-6.08,1.6-2.88,5.16l59.67,59.26c.73.83,3.81,3.46-.31,3.74h-57.06l-27.5-38.05s-3.74-3.7-7.76-.59c-4,3.19-2.57,6.87-1.41,11.79l5.16,18.44Z"/>
  <path class="st0" d="M509.17,125.38c0,2.64-2.14,4.77-4.78,4.77h-148.09c-2.64,0-4.78-2.13-4.78-4.77v-26.87c0-2.64,2.14-4.77,4.78-4.77h148.09c2.64,0,4.78,2.13,4.78,4.77v26.87Z"/>
  <path class="st0" d="M655.7,125.38c0,2.64-2.14,4.77-4.78,4.77h-120.47c-2.64,0-4.78-2.13-4.78-4.77v-26.87c0-2.64,2.14-4.77,4.78-4.77h120.47c2.64,0,4.78,2.13,4.78,4.77v26.87Z"/>
  <path class="st0" d="M790.97,128.94c.27-5.19-1.09-16.61-6.88-24.95-5.71-8.32-18.12-10.25-20.91-10.26h-78.96c-2.64,0-4.77,2.02-4.77,4.65v26.99c0,2.64,2.13,4.75,4.77,4.75h103.01c.45-.02,3.69.11,3.74-1.19"/>
  <path class="st0" d="M810.93,130.13h127.69c2.63,0,4.77-2.11,4.77-4.75v-26.99c0-2.63-2.14-4.65-4.77-4.65h-82.81c-10.53-.16-29.16,5.02-46.5,31.11-1.86,3.16-2.27,5.05,1.62,5.28"/>
  <path class="st0" d="M655.7,205.44c0,4.6,0,34.42,0,34.42,0,2.63-2.14,4.77-4.77,4.77h-120.48c-2.64,0-4.77-2.14-4.77-4.77v-94.21c0-2.64,2.13-4.74,4.77-4.74h95.78s4.68-.55,4.68,3.49v25.75c0,3.74-.7,6.36-5.86,6.36h-51.63c-3.19.03-4.82.63-4.82,3.37v17.56c0,2.54.25,3.74,4.57,3.74h77.67c2.54,0,4.87.6,4.87,4.26"/>
  <path class="st0" d="M1110.83,146.06c1.75,6.76,2.56,13.89,2.33,21.25-1.36,43.81-39.43,79.32-85.03,79.32s-81.46-35.51-80.09-79.32c.23-7.33,1.49-14.41,3.63-21.14.31-1.18,2.01-5.19,4.72-5.19h36.5c.48-.04,3.24.69.58,5.17-3.94,6.31-6.3,13.61-6.54,21.38-.32,10.54,3.45,20.54,10.59,28.16,7.89,8.4,18.87,13.03,30.91,13.03,24.56,0,45.13-19.32,45.84-43.08.21-6.91-1.33-13.61-4.45-19.54-.74-1.52-2.2-5.13.76-5.13h36.22c1.01,0,3.15,1.42,4.02,5.09"/>
  <path class="st0" d="M1104.24,125.4c-14.39-21.57-40.55-35.88-70.89-35.88s-57.5,14.34-73.31,35.93c-.94,1.33-2.28,5.02,2.99,5.02h139.17c.8,0,4.84.17,2.05-5.07"/>
  <path class="st0" d="M847.1,147.35c-3.99,5.41-6.6,11.77-7.25,18.58-1.86,19.58,13.18,35.39,33.6,35.39h65.12c2.54,0,4.87.41,4.87,4.09,0,4.59,0,34.42,0,34.42,0,2.64-2.14,4.81-4.78,4.81h-81.42c-28.47-.07-50.18-29.54-52.78-36.33-16.68-32.58-3.29-61.12-2.42-63.15,1.14-2.52,3.56-4.2,5.26-4.27h39.46c1.22,0,4.01,1.86.36,6.45"/>
</svg>